<?xml version="1.0" encoding="UTF-8"?>
<svg width="140px" height="40px" viewBox="0 0 140 40" version="1.1" xmlns="http://www.w3.org/2000/svg" xmlns:xlink="http://www.w3.org/1999/xlink">
    <!-- Generator: Sketch 64 (93537) - https://sketch.com -->
    <title>logo</title>
    <desc>Created with Sketch.</desc>
    <g id="页面-1" stroke="none" stroke-width="1" fill="none" fill-rule="evenodd">
        <g id="logo" fill-rule="nonzero">
            <polygon id="矩形" fill="#E91E63" points="45.034965 1.9047619 49.9300699 1.9047619 49.9300699 7.61904762 45.034965 7.61904762"></polygon>
            <polygon id="路径" fill="#333333" points="45.034965 11.4285714 47.4825175 11.4285714 49.9300699 11.4285714 49.9300699 39.047619 47.4825175 39.047619 45.034965 39.047619"></polygon>
            <polygon id="Y" fill="#333333" points="20.0307692 39.047619 20.0307692 23.8571429 35.3769231 1.64761905 30.0461538 1.64761905 17.8230769 19.8761905 5.6 1.64761905 0.269230769 1.64761905 15.6153846 23.8571429 15.6153846 39.047619"></polygon>
            <path d="M77.1125874,39.7809524 C81.6895105,39.7809524 85.2972028,38.8380952 87.9895105,37.0047619 C90.6818182,35.1190476 92.027972,32.5 92.027972,29.252381 C92.027972,25.847619 90.4125874,23.2285714 87.2356643,21.3428571 C85.6202797,20.4 82.2818182,19.1952381 77.2202797,17.7285714 C73.5048951,16.6809524 71.1356643,15.8952381 70.1664336,15.3714286 C67.9587413,14.2190476 66.8818182,12.7 66.8818182,10.8142857 C66.8818182,8.66666667 67.7972028,7.0952381 69.627972,6.04761905 C71.2433566,5.1047619 73.451049,4.68571429 76.3048951,4.68571429 C79.427972,4.68571429 81.851049,5.31428571 83.5741259,6.67619048 C85.2433566,7.98571429 86.3202797,9.97619048 86.8048951,12.7 L91.1664336,12.7 C90.7895105,8.77142857 89.3356643,5.78571429 86.751049,3.7952381 C84.2741259,1.85714286 80.827972,0.914285714 76.5202797,0.914285714 C72.5356643,0.914285714 69.251049,1.75238095 66.7202797,3.42857143 C63.8664336,5.20952381 62.4664336,7.77619048 62.4664336,11.0238095 C62.4664336,14.1666667 63.9202797,16.5761905 66.8818182,18.252381 C68.1202797,18.8809524 71.0818182,19.9285714 75.7125874,21.2904762 C80.0202797,22.4952381 82.7664336,23.3857143 83.8433566,24.0142857 C86.3741259,25.3238095 87.6664336,27.1571429 87.6664336,29.5142857 C87.6664336,31.5047619 86.6972028,33.0761905 84.7587413,34.2285714 C82.8202797,35.3809524 80.2356643,35.9571429 77.1125874,35.9571429 C73.6664336,35.9571429 71.0818182,35.2238095 69.3048951,33.8619048 C67.3664336,32.3428571 66.1818182,29.9333333 65.8048951,26.6857143 L61.4433566,26.6857143 C61.7664336,31.2952381 63.4356643,34.7 66.451049,36.952381 C69.0356643,38.8380952 72.5895105,39.7809524 77.1125874,39.7809524 Z" id="S" fill="#333333"></path>
            <g id="Search" transform="translate(100.839161, 0.952381)">
                <path d="M19.5729982,7.61897563 C13.113261,7.61897563 7.83274708,12.743655 7.83274708,19.0289733 C7.83274708,25.3142917 13.113261,30.4500577 19.5729982,30.4500577 C22.099678,30.4500577 24.4353639,29.655565 26.3532803,28.3220757 L35.7913717,37.5073356 C36.2812355,38.0044725 37.008858,38.2054164 37.6940934,38.0328008 C38.3793289,37.860185 38.9153175,37.3409285 39.0956955,36.674953 C39.2760734,36.0089774 39.0727114,35.3001389 38.5639071,34.8213513 L29.1181668,25.632348 C30.4854601,23.7638215 31.2979531,21.4869621 31.2979531,19.0289733 C31.2979531,12.743655 26.03274,7.61897563 19.5729982,7.61897563 L19.5729982,7.61897563 Z" id="路径" fill="#82B1FF"></path>
                <path d="M13.6904295,-0.000263967004 C6.15019481,-0.000263967004 -0.000495318499,5.98441994 -0.000495318499,13.3209509 C-0.00100289087,14.0020215 0.372136018,14.6315689 0.978245933,14.9722472 C1.58435585,15.3129256 2.33126107,15.3129256 2.93737098,14.9722472 C3.5434809,14.6315689 3.9166198,14.0020215 3.91611067,13.3209509 C3.91610031,8.04192276 8.26482482,3.80690813 13.6904295,3.80690813 C14.7549575,3.78520496 15.6062839,2.93933012 15.6062839,1.90332209 C15.6062839,0.86731405 14.7549575,0.0214392037 13.6904295,-0.000263967004 L13.6904295,-0.000263967004 Z M19.5710683,7.61767979 C13.1113302,7.61767979 7.8288945,12.7425751 7.8288945,19.0278935 C7.8288945,25.3132118 13.1113302,30.4492658 19.5710683,30.4492658 C22.0977465,30.4492658 24.4317443,29.656141 26.3496616,28.3226517 L35.7877256,37.5058238 C36.2769358,38.0047124 37.005159,38.2072144 37.6914312,38.0352 C38.3777034,37.8631856 38.9147351,37.3435471 39.0953282,36.6767721 C39.2759211,36.009997 39.071842,35.3003269 38.561829,34.8215673 L29.1161213,25.6309081 C30.4834148,23.7623817 31.2941374,21.4858823 31.2941374,19.0278935 C31.2941374,12.7425751 26.0308092,7.61767979 19.5710683,7.61767979 L19.5710683,7.61767979 Z M19.5710683,11.4248519 C23.9161762,11.4248519 27.3813536,14.800078 27.3813536,19.0278935 C27.3813536,23.255709 23.9161762,26.6421657 19.5710683,26.6421657 C15.2259617,26.6421657 11.7416791,23.255709 11.7416791,19.0278935 C11.7416791,14.800078 15.2259617,11.4248519 19.5710683,11.4248519 L19.5710683,11.4248519 Z" id="形状" fill="#2962FF"></path>
            </g>
        </g>
    </g>
</svg>