<?xml version="1.0" standalone="no"?>
<!DOCTYPE svg PUBLIC "-//W3C//DTD SVG 20010904//EN"
 "http://www.w3.org/TR/2001/REC-SVG-20010904/DTD/svg10.dtd">
<svg version="1.0" xmlns="http://www.w3.org/2000/svg"
 width="500.000000pt" height="500.000000pt" viewBox="0 0 500.000000 500.000000"
 preserveAspectRatio="xMidYMid meet">
<metadata>
Created by potrace 1.11, written by Peter Selinger 2001-2013
</metadata>
<g transform="translate(0.000000,500.000000) scale(0.100000,-0.100000)"
fill="#000000" stroke="none">
<path d="M897 4274 c-88 -45 -138 -96 -186 -191 -66 -134 -108 -281 -121 -428
-23 -266 -11 -572 30 -769 45 -219 87 -321 178 -439 58 -76 91 -173 104 -306
19 -191 -23 -345 -124 -455 -43 -47 -46 -54 -52 -121 -9 -99 -52 -354 -65
-388 -6 -16 -11 -41 -11 -55 0 -47 63 -163 113 -209 50 -46 67 -52 87 -28 10
12 4 27 -37 88 -28 39 -60 92 -73 116 l-22 43 32 117 c36 132 36 132 46 264 7
94 8 99 33 108 58 22 113 55 121 74 4 11 10 67 14 125 3 58 9 134 13 169 l6
64 31 -54 c70 -120 140 -215 219 -299 47 -49 114 -128 151 -177 l66 -88 -27
-3 c-81 -8 -243 -47 -290 -69 -60 -29 -179 -148 -215 -215 -31 -59 -31 -164
-1 -230 22 -49 41 -59 62 -34 10 11 10 33 0 95 -10 71 -9 84 5 106 9 13 16 29
16 35 0 31 154 206 183 207 6 1 57 3 112 6 55 3 113 9 128 12 23 6 34 0 79
-47 29 -30 85 -73 123 -96 87 -52 118 -80 234 -214 50 -59 104 -116 119 -127
17 -12 57 -23 110 -29 104 -13 124 -8 120 27 -3 24 -8 27 -63 33 -33 4 -76 9
-95 12 -20 3 -43 14 -55 28 -86 102 -109 131 -134 165 -41 57 -124 127 -219
185 -61 38 -84 58 -88 77 -24 111 -54 152 -269 381 -58 61 -111 131 -149 195
-64 107 -132 212 -152 232 -7 7 -18 54 -25 103 l-12 91 -77 102 c-77 103 -105
162 -149 312 -60 206 -83 509 -62 835 12 193 24 245 91 385 66 139 156 212
289 237 54 10 63 9 80 -6 32 -29 88 -146 111 -231 32 -121 46 -394 30 -615
-15 -223 -13 -207 -40 -328 -14 -68 -21 -124 -18 -163 2 -32 1 -59 -2 -59 -11
0 -150 -132 -172 -163 -16 -22 -17 -31 -8 -42 7 -8 18 -15 26 -15 7 0 73 45
146 101 153 116 269 176 413 216 96 26 109 27 345 28 l245 0 210 -42 c116 -24
251 -50 300 -59 112 -20 356 -29 453 -17 39 5 72 7 72 4 0 -3 -16 -17 -35 -30
-24 -16 -35 -31 -35 -48 0 -50 40 -37 163 50 38 27 79 44 145 61 78 20 103 32
174 83 100 73 176 109 184 88 7 -17 -45 -130 -88 -193 -41 -61 -150 -195 -206
-253 -38 -41 -43 -49 -33 -68 7 -11 20 -21 31 -21 22 0 180 170 225 242 36 57
45 62 97 46 56 -17 132 -88 165 -156 27 -56 28 -61 25 -201 -4 -190 8 -232 89
-316 l59 -62 0 -109 c0 -154 -30 -241 -113 -331 -54 -58 -95 -84 -204 -128
-96 -38 -192 -60 -299 -71 -139 -13 -150 -54 -43 -159 103 -102 174 -200 219
-301 41 -93 56 -111 84 -101 20 8 20 39 0 108 -27 91 -73 159 -182 269 -117
117 -117 118 1 119 89 1 188 30 300 87 133 68 171 97 220 167 73 105 95 174
104 322 7 119 2 132 -81 221 -34 36 -58 71 -61 89 -2 17 -6 100 -8 185 -2 143
-5 159 -29 211 l-26 57 59 58 c83 82 119 164 105 239 -10 50 -41 76 -91 74
-43 -2 -154 -39 -219 -71 l-39 -20 7 24 c4 12 10 42 13 65 5 39 4 42 -21 49
-62 15 -131 -1 -220 -52 -48 -27 -99 -61 -115 -76 -22 -22 -51 -33 -132 -50
-94 -21 -128 -23 -364 -22 -295 2 -391 12 -690 76 -226 47 -377 58 -554 38
-146 -16 -386 -77 -468 -118 -34 -18 -65 -32 -68 -32 -7 0 0 54 25 200 10 58
18 114 18 125 -1 11 5 108 12 215 28 426 -14 715 -118 828 -43 47 -90 62 -182
61 -53 -1 -77 -7 -133 -35z"/>
<path d="M3901 2235 c-25 -14 -90 -39 -145 -56 -110 -32 -120 -38 -114 -65 3
-16 12 -19 61 -16 32 1 81 11 109 22 l52 20 27 -26 c62 -59 116 -23 121 81 l3
60 -35 3 c-23 1 -50 -6 -79 -23z"/>
<path d="M4330 1841 c-43 -18 -62 -43 -41 -55 16 -10 141 17 141 30 0 47 -28
54 -100 25z"/>
<path d="M3131 1782 c-14 -26 2 -44 64 -70 78 -32 138 -37 190 -17 31 11 45
22 45 35 0 28 -16 34 -120 46 -52 6 -111 15 -132 19 -30 6 -38 4 -47 -13z"/>
<path d="M4262 1708 c-7 -7 -12 -18 -12 -24 0 -17 103 -104 122 -104 24 0 40
26 36 57 -2 23 -13 33 -58 55 -63 31 -72 32 -88 16z"/>
<path d="M3460 1665 c-83 -48 -216 -85 -306 -85 -40 0 -44 -2 -44 -25 0 -49
76 -58 199 -24 83 22 223 87 229 105 4 14 -25 44 -41 44 -7 0 -23 -7 -37 -15z"/>
<path d="M2052 1320 c-12 -12 -22 -23 -22 -25 0 -20 163 -311 197 -351 24 -28
43 -56 43 -61 0 -6 14 -16 31 -24 29 -12 33 -11 51 11 18 22 18 23 -5 54 -69
91 -138 198 -166 255 -16 35 -35 69 -41 76 -8 10 26 13 173 13 l184 0 -19 -62
c-13 -38 -21 -97 -23 -156 -2 -80 0 -100 17 -127 45 -74 120 -107 137 -61 6
17 0 32 -27 67 -19 25 -38 56 -43 69 -14 35 -11 105 7 184 l16 71 92 -7 c50
-4 126 -9 169 -13 l79 -6 -52 -30 c-56 -32 -114 -87 -135 -127 -18 -36 -38
-130 -33 -165 2 -24 8 -31 30 -33 30 -4 33 3 43 90 4 34 15 67 26 82 22 28
133 116 146 116 4 0 21 12 36 26 37 34 66 30 189 -32 73 -35 123 -71 211 -148
126 -111 214 -168 294 -192 60 -17 73 -13 73 22 0 17 -8 28 -27 35 -87 34
-138 66 -223 140 -110 95 -236 180 -335 228 -160 76 -353 101 -781 101 -278 0
-291 -1 -312 -20z"/>
</g>
</svg>
